<?xml version="1.0" encoding="UTF-8" standalone="no"?>
<!-- Created with Inkscape (http://www.inkscape.org/) -->
<svg
   xmlns:dc="http://purl.org/dc/elements/1.1/"
   xmlns:cc="http://web.resource.org/cc/"
   xmlns:rdf="http://www.w3.org/1999/02/22-rdf-syntax-ns#"
   xmlns:svg="http://www.w3.org/2000/svg"
   xmlns="http://www.w3.org/2000/svg"
   xmlns:xlink="http://www.w3.org/1999/xlink"
   xmlns:sodipodi="http://sodipodi.sourceforge.net/DTD/sodipodi-0.dtd"
   xmlns:inkscape="http://www.inkscape.org/namespaces/inkscape"
   width="524.10999"
   height="450.22659"
   id="svg2"
   sodipodi:version="0.32"
   inkscape:version="0.45"
   sodipodi:docbase="C:\Documents and Settings\Sigurd\Mine dokumenter\Mine bilder"
   sodipodi:docname="WikiProject Numismatics logo.svg"
   inkscape:output_extension="org.inkscape.output.svg.inkscape"
   version="1.0"
   sodipodi:modified="true">
  <defs
     id="defs4">
    <linearGradient
       y2="1251.5985"
       y1="1251.5984"
       xlink:href="#linearGradient13628"
       x2="137.12508"
       x1="134.78203"
       spreadMethod="reflect"
       inkscape:collect="always"
       id="linearGradient14519"
       gradientUnits="userSpaceOnUse"
       gradientTransform="scale(2.260479,0.442384)" />
    <linearGradient
       id="linearGradient13628">
      <stop
         style="stop-color:#f3d727;stop-opacity:1.0000000;"
         offset="0.0000000"
         id="stop13629" />
      <stop
         style="stop-color:#e0b524;stop-opacity:1.0000000;"
         offset="1.0000000"
         id="stop13630" />
    </linearGradient>
    <radialGradient
       xlink:href="#linearGradient14418"
       r="2.6936707"
       inkscape:collect="always"
       id="radialGradient14520"
       gradientUnits="userSpaceOnUse"
       gradientTransform="scale(1.81901,0.549749)"
       fy="1005.7717"
       fx="170.20071"
       cy="1005.7717"
       cx="170.20071" />
    <linearGradient
       id="linearGradient14418">
      <stop
         style="stop-color:#e0b524;stop-opacity:1.0000000;"
         offset="0.0000000"
         id="stop14419" />
      <stop
         style="stop-color:#f3d727;stop-opacity:1.0000000;"
         offset="1.0000000"
         id="stop14420" />
    </linearGradient>
    <linearGradient
       y2="1251.5985"
       y1="1251.5984"
       xlink:href="#linearGradient13628"
       x2="137.12508"
       x1="134.78203"
       spreadMethod="reflect"
       inkscape:collect="always"
       id="linearGradient14521"
       gradientUnits="userSpaceOnUse"
       gradientTransform="scale(2.260479,0.442384)" />
    <radialGradient
       xlink:href="#linearGradient14418"
       r="2.6936707"
       inkscape:collect="always"
       id="radialGradient14522"
       gradientUnits="userSpaceOnUse"
       gradientTransform="scale(1.81901,0.549749)"
       fy="1005.7717"
       fx="170.20071"
       cy="1005.7717"
       cx="170.20071" />
    <linearGradient
       y2="1251.5985"
       y1="1251.5984"
       xlink:href="#linearGradient13628"
       x2="137.12508"
       x1="134.78203"
       spreadMethod="reflect"
       inkscape:collect="always"
       id="linearGradient14523"
       gradientUnits="userSpaceOnUse"
       gradientTransform="scale(2.260479,0.442384)" />
    <radialGradient
       xlink:href="#linearGradient14418"
       r="2.6936707"
       inkscape:collect="always"
       id="radialGradient14524"
       gradientUnits="userSpaceOnUse"
       gradientTransform="scale(1.81901,0.549749)"
       fy="1005.7717"
       fx="170.20071"
       cy="1005.7717"
       cx="170.20071" />
    <linearGradient
       y2="1251.5985"
       y1="1251.5984"
       xlink:href="#linearGradient13628"
       x2="137.12508"
       x1="134.78203"
       spreadMethod="reflect"
       inkscape:collect="always"
       id="linearGradient14525"
       gradientUnits="userSpaceOnUse"
       gradientTransform="scale(2.260479,0.442384)" />
    <radialGradient
       xlink:href="#linearGradient14418"
       r="2.6936707"
       inkscape:collect="always"
       id="radialGradient14526"
       gradientUnits="userSpaceOnUse"
       gradientTransform="scale(1.81901,0.549749)"
       fy="1005.7717"
       fx="170.20071"
       cy="1005.7717"
       cx="170.20071" />
    <linearGradient
       y2="1251.5985"
       y1="1251.5984"
       xlink:href="#linearGradient13628"
       x2="137.12508"
       x1="134.78203"
       spreadMethod="reflect"
       inkscape:collect="always"
       id="linearGradient14527"
       gradientUnits="userSpaceOnUse"
       gradientTransform="scale(2.260479,0.442384)" />
    <radialGradient
       xlink:href="#linearGradient14418"
       r="2.6936707"
       inkscape:collect="always"
       id="radialGradient14528"
       gradientUnits="userSpaceOnUse"
       gradientTransform="scale(1.81901,0.549749)"
       fy="1005.7717"
       fx="170.20071"
       cy="1005.7717"
       cx="170.20071" />
    <linearGradient
       y2="1251.5985"
       y1="1251.5984"
       xlink:href="#linearGradient13628"
       x2="137.12508"
       x1="134.78203"
       spreadMethod="reflect"
       inkscape:collect="always"
       id="linearGradient14529"
       gradientUnits="userSpaceOnUse"
       gradientTransform="scale(2.260479,0.442384)" />
    <radialGradient
       xlink:href="#linearGradient14418"
       r="2.6936707"
       inkscape:collect="always"
       id="radialGradient14530"
       gradientUnits="userSpaceOnUse"
       gradientTransform="scale(1.81901,0.549749)"
       fy="1005.7717"
       fx="170.20071"
       cy="1005.7717"
       cx="170.20071" />
    <linearGradient
       inkscape:collect="always"
       xlink:href="#linearGradient13628"
       id="linearGradient17310"
       gradientUnits="userSpaceOnUse"
       gradientTransform="scale(2.260479,0.442384)"
       spreadMethod="reflect"
       x1="134.78203"
       y1="1251.5984"
       x2="137.12508"
       y2="1251.5985" />
    <radialGradient
       inkscape:collect="always"
       xlink:href="#linearGradient14418"
       id="radialGradient17312"
       gradientUnits="userSpaceOnUse"
       gradientTransform="scale(1.81901,0.549749)"
       cx="170.20071"
       cy="1005.7717"
       fx="170.20071"
       fy="1005.7717"
       r="2.6936707" />
    <linearGradient
       inkscape:collect="always"
       xlink:href="#linearGradient13628"
       id="linearGradient17314"
       gradientUnits="userSpaceOnUse"
       gradientTransform="scale(2.260479,0.442384)"
       spreadMethod="reflect"
       x1="134.78203"
       y1="1251.5984"
       x2="137.12508"
       y2="1251.5985" />
    <radialGradient
       inkscape:collect="always"
       xlink:href="#linearGradient14418"
       id="radialGradient17316"
       gradientUnits="userSpaceOnUse"
       gradientTransform="scale(1.81901,0.549749)"
       cx="170.20071"
       cy="1005.7717"
       fx="170.20071"
       fy="1005.7717"
       r="2.6936707" />
    <linearGradient
       inkscape:collect="always"
       xlink:href="#linearGradient13628"
       id="linearGradient17318"
       gradientUnits="userSpaceOnUse"
       gradientTransform="scale(2.260479,0.442384)"
       spreadMethod="reflect"
       x1="134.78203"
       y1="1251.5984"
       x2="137.12508"
       y2="1251.5985" />
    <radialGradient
       inkscape:collect="always"
       xlink:href="#linearGradient14418"
       id="radialGradient17320"
       gradientUnits="userSpaceOnUse"
       gradientTransform="scale(1.81901,0.549749)"
       cx="170.20071"
       cy="1005.7717"
       fx="170.20071"
       fy="1005.7717"
       r="2.6936707" />
    <linearGradient
       inkscape:collect="always"
       xlink:href="#linearGradient13628"
       id="linearGradient17322"
       gradientUnits="userSpaceOnUse"
       gradientTransform="scale(2.260479,0.442384)"
       spreadMethod="reflect"
       x1="134.78203"
       y1="1251.5984"
       x2="137.12508"
       y2="1251.5985" />
    <radialGradient
       inkscape:collect="always"
       xlink:href="#linearGradient14418"
       id="radialGradient17324"
       gradientUnits="userSpaceOnUse"
       gradientTransform="scale(1.81901,0.549749)"
       cx="170.20071"
       cy="1005.7717"
       fx="170.20071"
       fy="1005.7717"
       r="2.6936707" />
    <filter
       inkscape:collect="always"
       x="-0.10442827"
       width="1.2088565"
       y="-0.072477863"
       height="1.1449557"
       id="filter38256">
      <feGaussianBlur
         inkscape:collect="always"
         stdDeviation="5.7473423"
         id="feGaussianBlur38258" />
    </filter>
    <filter
       inkscape:collect="always"
       id="filter38260">
      <feGaussianBlur
         inkscape:collect="always"
         stdDeviation="5.7473423"
         id="feGaussianBlur38262" />
    </filter>
    <filter
       inkscape:collect="always"
       x="-0.1218171"
       width="1.2436342"
       y="-0.065243545"
       height="1.1304871"
       id="filter38264">
      <feGaussianBlur
         inkscape:collect="always"
         stdDeviation="5.7473423"
         id="feGaussianBlur38266" />
    </filter>
    <filter
       inkscape:collect="always"
       id="filter38268">
      <feGaussianBlur
         inkscape:collect="always"
         stdDeviation="5.7473423"
         id="feGaussianBlur38270" />
    </filter>
  </defs>
  <sodipodi:namedview
     id="base"
     pagecolor="#ffffff"
     bordercolor="#666666"
     borderopacity="1.0"
     gridtolerance="10000"
     guidetolerance="10"
     objecttolerance="10"
     inkscape:pageopacity="0.0"
     inkscape:pageshadow="2"
     inkscape:zoom="0.98994949"
     inkscape:cx="370.48612"
     inkscape:cy="185.92409"
     inkscape:document-units="px"
     inkscape:current-layer="layer1"
     inkscape:window-width="1024"
     inkscape:window-height="719"
     inkscape:window-x="-4"
     inkscape:window-y="-4"
     showguides="true"
     inkscape:guide-bbox="true"
     width="524.11px"
     height="450.22659px" />
  <metadata
     id="metadata7">
    <rdf:RDF>
      <cc:Work
         rdf:about="">
        <dc:format>image/svg+xml</dc:format>
        <dc:type
           rdf:resource="http://purl.org/dc/dcmitype/StillImage" />
      </cc:Work>
    </rdf:RDF>
  </metadata>
  <g
     inkscape:label="Layer 1"
     inkscape:groupmode="layer"
     id="layer1"
     transform="translate(-58.27042,-313.67045)">
    <path
       style="fill:#000000;fill-opacity:1;stroke:none;stroke-width:3.68000007;stroke-miterlimit:4;stroke-dasharray:none;stroke-opacity:1;opacity:0.7;filter:url(#filter38268)"
       d="M 412.52736,452.30634 L 395.90451,452.30634 L 389.99418,465.6046 L 410.31098,465.6046 C 409.94158,467.82098 409.94158,470.03737 409.94158,472.25375 C 409.94158,474.47012 409.94158,476.6865 410.31098,478.90288 L 395.90451,478.90288 L 389.99418,492.20114 L 412.52736,492.20114 C 421.76227,526.18561 453.34564,552.04335 489.73117,552.04335 C 509.86328,552.04335 528.70248,544.10132 542.92424,531.17246 L 542.92424,511.96385 C 530.73417,528.21728 511.34086,538.74508 489.73117,538.74508 C 460.17947,538.74508 434.87583,519.16706 426.37972,492.20114 L 516.3277,492.20114 L 522.23805,478.90288 L 423.60924,478.90288 C 423.23984,476.6865 423.23984,474.47012 423.23984,472.25375 C 423.23984,470.40677 423.23984,467.82098 423.60924,465.6046 L 528.1484,465.6046 L 534.05873,452.30634 L 426.37972,452.30634 C 434.69113,425.70981 459.81009,405.76241 489.73117,405.76241 C 513.00315,405.76241 530.73417,416.2902 542.92424,432.35895 L 548.83458,419.24538 C 534.05873,402.80723 513.00315,392.46414 489.73117,392.46414 C 453.16094,392.46414 421.57756,418.69128 412.52736,452.30634 z "
       id="path23391" />
    <path
       style="font-size:56px;font-style:normal;font-weight:bold;fill:#000000;fill-opacity:1;stroke:none;stroke-width:3.68000007;stroke-linecap:butt;stroke-linejoin:miter;stroke-miterlimit:4;stroke-dasharray:none;stroke-opacity:1;font-family:Zone23_HelveticaFlip;opacity:0.7;filter:url(#filter38264)"
       d="M 268.09241,437.5713 C 268.89038,446.99601 271.24655,454.79353 275.16091,460.96391 C 279.07545,467.13434 283.85259,471.64618 289.49231,474.4995 C 295.13222,477.3528 302.13388,479.24524 310.49737,480.17678 L 310.49737,497.69163 L 320.84347,497.69162 L 320.84347,479.9763 C 326.95113,479.9763 332.42689,478.88072 337.27084,476.68962 C 342.11483,474.49849 346.59429,471.28066 350.7092,467.0361 C 358.53814,458.80623 362.45259,448.65255 362.4526,436.57498 C 362.45259,431.1357 361.45626,426.02642 359.46358,421.24721 C 357.73824,416.60178 355.08438,412.48786 351.50202,408.90544 C 347.9197,405.32317 343.54048,402.47084 338.36438,400.34848 C 335.97484,399.15376 330.13454,397.42842 320.84347,395.17242 L 320.84347,344.60841 C 326.42056,345.79929 330.86759,348.22027 334.18464,351.87132 C 337.50172,355.52267 339.69086,360.79898 340.75194,367.70029 L 358.86821,365.11225 C 357.27651,353.96234 352.69785,345.20191 345.13219,338.83089 C 338.89497,333.7886 330.79873,330.80366 320.84347,329.87601 L 320.84348,321.51045 L 310.49737,321.51045 L 310.49737,329.87601 C 298.68318,331.33421 289.92274,334.51966 284.21601,339.43236 C 275.45564,347.26136 271.07543,357.34626 271.07533,369.6869 C 271.07544,376.7221 272.56891,382.99372 275.55577,388.5018 C 278.54287,394.01012 282.82285,398.28906 288.39575,401.33876 C 291.98019,403.33147 295.72962,405.05786 299.64402,406.51788 C 303.55851,407.97799 307.17634,409.04017 310.49737,409.70433 L 310.49739,465.44439 C 303.59601,464.64655 297.68888,461.19582 292.77598,455.09223 C 289.32533,450.44675 286.93779,443.54532 285.61332,434.38788 L 268.09241,437.5713 z M 288.59623,368.29564 C 288.59631,362.19221 290.55355,356.91692 294.46792,352.46976 C 298.38247,348.02283 303.72561,345.33556 310.49739,344.40791 L 310.49739,392.97925 C 302.26755,390.32649 296.6257,387.07628 293.57186,383.22851 C 290.25486,379.37697 288.59631,374.39934 288.59623,368.29564 L 288.59623,368.29564 z M 320.84347,465.4444 L 320.84348,412.09188 C 330.53549,415.40897 336.77473,418.92653 339.5612,422.64455 C 342.74462,426.49222 344.33634,431.53463 344.3363,437.77182 C 344.33634,445.20383 342.08039,451.47446 337.56852,456.58371 C 333.05672,461.69299 327.48168,464.64654 320.84347,465.4444 L 320.84347,465.4444 z "
       id="path23393" />
    <path
       style="font-size:56px;font-style:normal;font-weight:normal;fill:#000000;fill-opacity:1;stroke:none;stroke-width:3.68000007;stroke-linecap:butt;stroke-linejoin:miter;stroke-miterlimit:4;stroke-dasharray:none;stroke-opacity:1;font-family:Zone23_HelveticaFlip;opacity:0.7;filter:url(#filter38260)"
       d="M 357.34021,762.05703 L 357.24789,727.0022 L 312.49076,727.12006 L 312.45129,712.12924 L 357.20843,712.01137 L 357.16836,696.79853 L 312.41123,696.91639 L 312.36884,680.82212 L 349.1865,680.72517 L 305.33135,604.33179 L 326.72086,604.27547 L 358.17429,659.75592 C 360.2428,663.4243 361.8678,666.43212 363.04922,668.77938 C 364.23059,671.12683 365.33836,673.62238 366.37258,676.26607 C 367.98139,672.29666 370.9064,666.48459 375.14764,658.82984 L 404.54793,604.07052 L 427.47822,604.01013 L 384.02602,680.63343 L 420.84369,680.53647 L 420.88606,696.63074 L 376.57298,696.74742 L 376.61306,711.96028 L 420.92613,711.84356 L 420.96559,726.83441 L 376.65253,726.95109 L 376.74483,762.00592 L 357.34021,762.05703 z "
       id="path23395" />
    <path
       id="path23397"
       d="M 468.45936,704.55094 L 475.72579,722.7235 C 480.28749,719.5882 485.45357,717.16497 491.22398,715.4538 C 496.9946,713.74265 502.30199,712.88709 507.14617,712.88709 L 516.97606,713.74159 C 519.39826,714.31559 521.89214,714.99396 524.45775,715.77669 C 527.02343,716.55944 529.62387,717.34219 532.25902,718.12489 C 534.89432,718.90764 537.28057,719.61974 539.41781,720.26114 C 541.55517,720.90256 543.58596,721.40152 545.51016,721.75813 C 547.43443,722.11469 550.03591,722.29297 553.3147,722.29297 C 556.87618,722.29297 559.97449,721.97229 562.60972,721.33087 C 565.24493,720.68946 567.70294,719.97741 569.98377,719.19466 C 572.26456,718.41191 575.11394,717.23562 578.53191,715.66582 L 572.55048,698.5695 C 564.42741,702.41796 557.73065,704.34219 552.4602,704.34219 C 548.46827,704.34219 540.41692,702.9159 528.30621,700.06324 C 520.75284,698.35428 514.1974,697.49977 508.63991,697.49977 C 504.22187,697.49977 499.23627,698.2847 493.68309,699.8545 C 500.23643,692.87075 504.97309,685.95875 507.89303,679.11847 C 510.81318,672.27823 512.27317,665.8663 512.27313,659.88266 C 512.27317,658.17374 512.13077,656.74851 511.84589,655.60695 C 511.56112,654.46554 511.06211,652.82723 510.3489,650.692 L 539.84506,650.692 L 539.84506,635.30469 L 506.93094,635.30469 C 503.08256,622.62009 501.15833,612.50321 501.15825,604.954 C 501.15833,597.97036 503.75874,591.98462 508.95953,586.9967 C 514.16046,582.00905 520.53761,579.51516 528.09095,579.51505 C 535.50092,579.51516 541.77044,581.93729 546.8995,586.78144 C 552.02865,591.62584 555.02154,598.18128 555.87817,606.44774 L 574.68997,603.66905 C 572.8375,591.27145 567.77798,581.5829 559.51137,574.60335 C 555.52379,571.03767 550.92846,568.40031 545.72538,566.69116 C 540.52239,564.98235 534.78775,564.12784 528.52148,564.1277 C 516.12381,564.12784 505.65037,567.33273 497.10106,573.74232 C 486.41243,582.15256 481.06806,593.48266 481.06794,607.73273 C 481.06806,610.0115 481.06806,612.21836 481.06794,614.3534 C 481.49855,616.06682 481.7834,617.34964 481.92244,618.20186 C 482.63572,622.05043 484.13159,627.75136 486.41014,635.30469 L 470.38359,635.30469 L 470.38359,650.692 L 490.68913,650.692 C 491.97202,655.25371 492.61344,659.60006 492.61336,663.73111 C 492.61344,673.27624 490.26195,681.57541 485.55892,688.62874 C 480.85608,695.68208 475.15621,700.9895 468.45936,704.55094 L 468.45936,704.55094 z "
       style="font-size:56px;font-style:normal;font-weight:normal;fill:#000000;fill-opacity:1;stroke:none;stroke-width:3.68000007;stroke-linecap:butt;stroke-linejoin:miter;stroke-miterlimit:4;stroke-dasharray:none;stroke-opacity:1;font-family:Zone23_HelveticaFlip;opacity:0.7;filter:url(#filter38256)" />
    <path
       style="color:#000000;fill:none;fill-opacity:1;fill-rule:nonzero;stroke:#ff0000;stroke-width:11.1319561;stroke-linecap:butt;stroke-linejoin:miter;marker:none;marker-start:none;marker-mid:none;marker-end:none;stroke-miterlimit:4;stroke-dashoffset:0;stroke-opacity:1;visibility:visible;display:inline;overflow:visible;enable-background:accumulate"
       d="M 64.826245,607.36317 L 78.537184,564.17419 L 86.643484,539.81807 L 98.68119,479.11667 L 124.85675,546.44543 L 131.99279,536.24167 L 151.89544,583.29906 L 161.67793,535.12144 L 170.21256,515.12776 L 178.22534,519.74562 L 189.66983,412.95903 L 205.00307,456.5602 L 229.93352,517.76879 L 248.31851,546.01832 L 258.76087,516.27989 L 270.88853,480.89692 L 288.7877,521.15646 L 306.43718,548.71009 L 323.27078,534.15048 L 339.11464,540.03284 L 378.69435,572.67178 L 407.60892,538.15068 L 432.79839,569.51846"
       id="path5261"
       sodipodi:nodetypes="ccccccccccccccccccccccc" />
    <g
       inkscape:label="Layer 1"
       id="g17252"
       transform="matrix(-0.6313109,0,0,0.6313109,235.10007,571.57848)">
      <g
         transform="matrix(-22.18185,0,0,22.18185,7003.917,-12060.26)"
         id="g14451">
        <path
           style="fill:url(#linearGradient14519);fill-opacity:1;fill-rule:evenodd;stroke:#000000;stroke-width:0.25pt;stroke-linecap:butt;stroke-linejoin:miter;stroke-opacity:1"
           sodipodi:nodetypes="cccc"
           id="path14452"
           d="M 304.82829,552.94494 L 304.87328,554.49697 C 307.1151,555.74909 311.51628,555.85406 314.34293,554.42949 L 314.36542,552.87746" />
        <path
           style="fill:url(#radialGradient14520);fill-opacity:1;fill-rule:nonzero;stroke:#000000;stroke-width:0.26249999;stroke-linecap:butt;stroke-linejoin:round;stroke-miterlimit:4;stroke-opacity:1"
           sodipodi:type="arc"
           sodipodi:ry="1.349594"
           sodipodi:rx="4.7685652"
           sodipodi:cy="552.92242"
           sodipodi:cx="309.59686"
           id="path14453"
           d="M 314.36543 552.92242 A 4.7685652 1.349594 0 1 1  304.8283,552.92242 A 4.7685652 1.349594 0 1 1  314.36543 552.92242 z" />
      </g>
      <g
         transform="matrix(-22.18185,0,0,22.18185,6990.241,-12093.12)"
         id="g14454">
        <path
           style="fill:url(#linearGradient14521);fill-opacity:1;fill-rule:evenodd;stroke:#000000;stroke-width:0.25pt;stroke-linecap:butt;stroke-linejoin:miter;stroke-opacity:1"
           sodipodi:nodetypes="cccc"
           id="path14455"
           d="M 304.82829,552.94494 L 304.87328,554.49697 C 307.1151,555.74909 311.51628,555.85406 314.34293,554.42949 L 314.36542,552.87746" />
        <path
           style="fill:url(#radialGradient14522);fill-opacity:1;fill-rule:nonzero;stroke:#000000;stroke-width:0.26249999;stroke-linecap:butt;stroke-linejoin:round;stroke-miterlimit:4;stroke-opacity:1"
           sodipodi:type="arc"
           sodipodi:ry="1.349594"
           sodipodi:rx="4.7685652"
           sodipodi:cy="552.92242"
           sodipodi:cx="309.59686"
           id="path14456"
           d="M 314.36543 552.92242 A 4.7685652 1.349594 0 1 1  304.8283,552.92242 A 4.7685652 1.349594 0 1 1  314.36543 552.92242 z" />
      </g>
      <g
         transform="matrix(-22.18185,0,0,22.18185,6998.708,-12124.17)"
         id="g14457">
        <path
           style="fill:url(#linearGradient14523);fill-opacity:1;fill-rule:evenodd;stroke:#000000;stroke-width:0.25pt;stroke-linecap:butt;stroke-linejoin:miter;stroke-opacity:1"
           sodipodi:nodetypes="cccc"
           id="path14458"
           d="M 304.82829,552.94494 L 304.87328,554.49697 C 307.1151,555.74909 311.51628,555.85406 314.34293,554.42949 L 314.36542,552.87746" />
        <path
           style="fill:url(#radialGradient14524);fill-opacity:1;fill-rule:nonzero;stroke:#000000;stroke-width:0.26249999;stroke-linecap:butt;stroke-linejoin:round;stroke-miterlimit:4;stroke-opacity:1"
           sodipodi:type="arc"
           sodipodi:ry="1.349594"
           sodipodi:rx="4.7685652"
           sodipodi:cy="552.92242"
           sodipodi:cx="309.59686"
           id="path14459"
           d="M 314.36543 552.92242 A 4.7685652 1.349594 0 1 1  304.8283,552.92242 A 4.7685652 1.349594 0 1 1  314.36543 552.92242 z" />
      </g>
      <g
         transform="matrix(-22.18185,0,0,22.18185,6995.886,-12155.22)"
         id="g14460">
        <path
           style="fill:url(#linearGradient14525);fill-opacity:1;fill-rule:evenodd;stroke:#000000;stroke-width:0.25pt;stroke-linecap:butt;stroke-linejoin:miter;stroke-opacity:1"
           sodipodi:nodetypes="cccc"
           id="path14461"
           d="M 304.82829,552.94494 L 304.87328,554.49697 C 307.1151,555.74909 311.51628,555.85406 314.34293,554.42949 L 314.36542,552.87746" />
        <path
           style="fill:url(#radialGradient14526);fill-opacity:1;fill-rule:nonzero;stroke:#000000;stroke-width:0.26249999;stroke-linecap:butt;stroke-linejoin:round;stroke-miterlimit:4;stroke-opacity:1"
           sodipodi:type="arc"
           sodipodi:ry="1.349594"
           sodipodi:rx="4.7685652"
           sodipodi:cy="552.92242"
           sodipodi:cx="309.59686"
           id="path14462"
           d="M 314.36543 552.92242 A 4.7685652 1.349594 0 1 1  304.8283,552.92242 A 4.7685652 1.349594 0 1 1  314.36543 552.92242 z" />
      </g>
      <g
         transform="matrix(-22.18185,0,0,22.18185,6995.886,-12189.09)"
         id="g14463">
        <path
           style="fill:url(#linearGradient14527);fill-opacity:1;fill-rule:evenodd;stroke:#000000;stroke-width:0.25pt;stroke-linecap:butt;stroke-linejoin:miter;stroke-opacity:1"
           sodipodi:nodetypes="cccc"
           id="path14464"
           d="M 304.82829,552.94494 L 304.87328,554.49697 C 307.1151,555.74909 311.51628,555.85406 314.34293,554.42949 L 314.36542,552.87746" />
        <path
           style="fill:url(#radialGradient14528);fill-opacity:1;fill-rule:nonzero;stroke:#000000;stroke-width:0.26249999;stroke-linecap:butt;stroke-linejoin:round;stroke-miterlimit:4;stroke-opacity:1"
           sodipodi:type="arc"
           sodipodi:ry="1.349594"
           sodipodi:rx="4.7685652"
           sodipodi:cy="552.92242"
           sodipodi:cx="309.59686"
           id="path14465"
           d="M 314.36543 552.92242 A 4.7685652 1.349594 0 1 1  304.8283,552.92242 A 4.7685652 1.349594 0 1 1  314.36543 552.92242 z" />
      </g>
      <g
         transform="matrix(-22.18185,0,0,22.18185,6990.241,-12220.13)"
         id="g14466">
        <path
           style="fill:url(#linearGradient14529);fill-opacity:1;fill-rule:evenodd;stroke:#000000;stroke-width:0.25pt;stroke-linecap:butt;stroke-linejoin:miter;stroke-opacity:1"
           sodipodi:nodetypes="cccc"
           id="path14467"
           d="M 304.82829,552.94494 L 304.87328,554.49697 C 307.1151,555.74909 311.51628,555.85406 314.34293,554.42949 L 314.36542,552.87746" />
        <path
           style="fill:url(#radialGradient14530);fill-opacity:1;fill-rule:nonzero;stroke:#000000;stroke-width:0.26249999;stroke-linecap:butt;stroke-linejoin:round;stroke-miterlimit:4;stroke-opacity:1"
           sodipodi:type="arc"
           sodipodi:ry="1.349594"
           sodipodi:rx="4.7685652"
           sodipodi:cy="552.92242"
           sodipodi:cx="309.59686"
           id="path14468"
           d="M 314.36543 552.92242 A 4.7685652 1.349594 0 1 1  304.8283,552.92242 A 4.7685652 1.349594 0 1 1  314.36543 552.92242 z" />
      </g>
    </g>
    <g
       transform="matrix(0.6313109,0,0,0.6313109,139.17344,594.50061)"
       id="g17272"
       inkscape:label="Layer 1">
      <g
         id="g17274"
         transform="matrix(-22.18185,0,0,22.18185,7003.917,-12060.26)">
        <path
           d="M 304.82829,552.94494 L 304.87328,554.49697 C 307.1151,555.74909 311.51628,555.85406 314.34293,554.42949 L 314.36542,552.87746"
           id="path17276"
           sodipodi:nodetypes="cccc"
           style="fill:url(#linearGradient17310);fill-opacity:1;fill-rule:evenodd;stroke:#000000;stroke-width:0.25pt;stroke-linecap:butt;stroke-linejoin:miter;stroke-opacity:1" />
        <path
           d="M 314.36543 552.92242 A 4.7685652 1.349594 0 1 1  304.8283,552.92242 A 4.7685652 1.349594 0 1 1  314.36543 552.92242 z"
           id="path17278"
           sodipodi:cx="309.59686"
           sodipodi:cy="552.92242"
           sodipodi:rx="4.7685652"
           sodipodi:ry="1.349594"
           sodipodi:type="arc"
           style="fill:url(#radialGradient17312);fill-opacity:1;fill-rule:nonzero;stroke:#000000;stroke-width:0.26249999;stroke-linecap:butt;stroke-linejoin:round;stroke-miterlimit:4;stroke-opacity:1" />
      </g>
      <g
         id="g17280"
         transform="matrix(-22.18185,0,0,22.18185,6990.241,-12093.12)">
        <path
           d="M 304.82829,552.94494 L 304.87328,554.49697 C 307.1151,555.74909 311.51628,555.85406 314.34293,554.42949 L 314.36542,552.87746"
           id="path17282"
           sodipodi:nodetypes="cccc"
           style="fill:url(#linearGradient17314);fill-opacity:1;fill-rule:evenodd;stroke:#000000;stroke-width:0.25pt;stroke-linecap:butt;stroke-linejoin:miter;stroke-opacity:1" />
        <path
           d="M 314.36543 552.92242 A 4.7685652 1.349594 0 1 1  304.8283,552.92242 A 4.7685652 1.349594 0 1 1  314.36543 552.92242 z"
           id="path17284"
           sodipodi:cx="309.59686"
           sodipodi:cy="552.92242"
           sodipodi:rx="4.7685652"
           sodipodi:ry="1.349594"
           sodipodi:type="arc"
           style="fill:url(#radialGradient17316);fill-opacity:1;fill-rule:nonzero;stroke:#000000;stroke-width:0.26249999;stroke-linecap:butt;stroke-linejoin:round;stroke-miterlimit:4;stroke-opacity:1" />
      </g>
      <g
         id="g17286"
         transform="matrix(-22.18185,0,0,22.18185,6998.708,-12124.17)">
        <path
           d="M 304.82829,552.94494 L 304.87328,554.49697 C 307.1151,555.74909 311.51628,555.85406 314.34293,554.42949 L 314.36542,552.87746"
           id="path17288"
           sodipodi:nodetypes="cccc"
           style="fill:url(#linearGradient17318);fill-opacity:1;fill-rule:evenodd;stroke:#000000;stroke-width:0.25pt;stroke-linecap:butt;stroke-linejoin:miter;stroke-opacity:1" />
        <path
           d="M 314.36543 552.92242 A 4.7685652 1.349594 0 1 1  304.8283,552.92242 A 4.7685652 1.349594 0 1 1  314.36543 552.92242 z"
           id="path17290"
           sodipodi:cx="309.59686"
           sodipodi:cy="552.92242"
           sodipodi:rx="4.7685652"
           sodipodi:ry="1.349594"
           sodipodi:type="arc"
           style="fill:url(#radialGradient17320);fill-opacity:1;fill-rule:nonzero;stroke:#000000;stroke-width:0.26249999;stroke-linecap:butt;stroke-linejoin:round;stroke-miterlimit:4;stroke-opacity:1" />
      </g>
      <g
         id="g17292"
         transform="matrix(-22.18185,0,0,22.18185,6995.886,-12155.22)">
        <path
           d="M 304.82829,552.94494 L 304.87328,554.49697 C 307.1151,555.74909 311.51628,555.85406 314.34293,554.42949 L 314.36542,552.87746"
           id="path17294"
           sodipodi:nodetypes="cccc"
           style="fill:url(#linearGradient17322);fill-opacity:1;fill-rule:evenodd;stroke:#000000;stroke-width:0.25pt;stroke-linecap:butt;stroke-linejoin:miter;stroke-opacity:1" />
        <path
           d="M 314.36543 552.92242 A 4.7685652 1.349594 0 1 1  304.8283,552.92242 A 4.7685652 1.349594 0 1 1  314.36543 552.92242 z"
           id="path17296"
           sodipodi:cx="309.59686"
           sodipodi:cy="552.92242"
           sodipodi:rx="4.7685652"
           sodipodi:ry="1.349594"
           sodipodi:type="arc"
           style="fill:url(#radialGradient17324);fill-opacity:1;fill-rule:nonzero;stroke:#000000;stroke-width:0.26249999;stroke-linecap:butt;stroke-linejoin:round;stroke-miterlimit:4;stroke-opacity:1" />
      </g>
    </g>
    <path
       id="path18435"
       d="M 408.52736,446.30634 L 391.90451,446.30634 L 385.99418,459.6046 L 406.31098,459.6046 C 405.94158,461.82098 405.94158,464.03737 405.94158,466.25375 C 405.94158,468.47012 405.94158,470.6865 406.31098,472.90288 L 391.90451,472.90288 L 385.99418,486.20114 L 408.52736,486.20114 C 417.76227,520.18561 449.34564,546.04335 485.73117,546.04335 C 505.86328,546.04335 524.70248,538.10132 538.92424,525.17246 L 538.92424,505.96385 C 526.73417,522.21728 507.34086,532.74508 485.73117,532.74508 C 456.17947,532.74508 430.87583,513.16706 422.37972,486.20114 L 512.3277,486.20114 L 518.23805,472.90288 L 419.60924,472.90288 C 419.23984,470.6865 419.23984,468.47012 419.23984,466.25375 C 419.23984,464.40677 419.23984,461.82098 419.60924,459.6046 L 524.1484,459.6046 L 530.05873,446.30634 L 422.37972,446.30634 C 430.69113,419.70981 455.81009,399.76241 485.73117,399.76241 C 509.00315,399.76241 526.73417,410.2902 538.92424,426.35895 L 544.83458,413.24538 C 530.05873,396.80723 509.00315,386.46414 485.73117,386.46414 C 449.16094,386.46414 417.57756,412.69128 408.52736,446.30634 z "
       style="fill:none;stroke:#000000;stroke-width:3.68000007;stroke-miterlimit:4;stroke-dasharray:none;stroke-opacity:1" />
    <path
       id="path19432"
       d="M 264.09241,431.5713 C 264.89038,440.99601 267.24655,448.79353 271.16091,454.96391 C 275.07545,461.13434 279.85259,465.64618 285.49231,468.4995 C 291.13222,471.3528 298.13388,473.24524 306.49737,474.17678 L 306.49737,491.69163 L 316.84347,491.69162 L 316.84347,473.9763 C 322.95113,473.9763 328.42689,472.88072 333.27084,470.68962 C 338.11483,468.49849 342.59429,465.28066 346.7092,461.0361 C 354.53814,452.80623 358.45259,442.65255 358.4526,430.57498 C 358.45259,425.1357 357.45626,420.02642 355.46358,415.24721 C 353.73824,410.60178 351.08438,406.48786 347.50202,402.90544 C 343.9197,399.32317 339.54048,396.47084 334.36438,394.34848 C 331.97484,393.15376 326.13454,391.42842 316.84347,389.17242 L 316.84347,338.60841 C 322.42056,339.79929 326.86759,342.22027 330.18464,345.87132 C 333.50172,349.52267 335.69086,354.79898 336.75194,361.70029 L 354.86821,359.11225 C 353.27651,347.96234 348.69785,339.20191 341.13219,332.83089 C 334.89497,327.7886 326.79873,324.80366 316.84347,323.87601 L 316.84348,315.51045 L 306.49737,315.51045 L 306.49737,323.87601 C 294.68318,325.33421 285.92274,328.51966 280.21601,333.43236 C 271.45564,341.26136 267.07543,351.34626 267.07533,363.6869 C 267.07544,370.7221 268.56891,376.99372 271.55577,382.5018 C 274.54287,388.01012 278.82285,392.28906 284.39575,395.33876 C 287.98019,397.33147 291.72962,399.05786 295.64402,400.51788 C 299.55851,401.97799 303.17634,403.04017 306.49737,403.70433 L 306.49739,459.44439 C 299.59601,458.64655 293.68888,455.19582 288.77598,449.09223 C 285.32533,444.44675 282.93779,437.54532 281.61332,428.38788 L 264.09241,431.5713 z M 284.59623,362.29564 C 284.59631,356.19221 286.55355,350.91692 290.46792,346.46976 C 294.38247,342.02283 299.72561,339.33556 306.49739,338.40791 L 306.49739,386.97925 C 298.26755,384.32649 292.6257,381.07628 289.57186,377.22851 C 286.25486,373.37697 284.59631,368.39934 284.59623,362.29564 L 284.59623,362.29564 z M 316.84347,459.4444 L 316.84348,406.09188 C 326.53549,409.40897 332.77473,412.92653 335.5612,416.64455 C 338.74462,420.49222 340.33634,425.53463 340.3363,431.77182 C 340.33634,439.20383 338.08039,445.47446 333.56852,450.58371 C 329.05672,455.69299 323.48168,458.64654 316.84347,459.4444 L 316.84347,459.4444 z "
       style="font-size:56px;font-style:normal;font-weight:bold;fill:none;fill-opacity:1;stroke:#000000;stroke-width:3.68000007;stroke-linecap:butt;stroke-linejoin:miter;stroke-miterlimit:4;stroke-dasharray:none;stroke-opacity:1;font-family:Zone23_HelveticaFlip" />
    <path
       id="path20403"
       d="M 353.34021,756.05703 L 353.24789,721.0022 L 308.49076,721.12006 L 308.45129,706.12924 L 353.20843,706.01137 L 353.16836,690.79853 L 308.41123,690.91639 L 308.36884,674.82212 L 345.1865,674.72517 L 301.33135,598.33179 L 322.72086,598.27547 L 354.17429,653.75592 C 356.2428,657.4243 357.8678,660.43212 359.04922,662.77938 C 360.23059,665.12683 361.33836,667.62238 362.37258,670.26607 C 363.98139,666.29666 366.9064,660.48459 371.14764,652.82984 L 400.54793,598.07052 L 423.47822,598.01013 L 380.02602,674.63343 L 416.84369,674.53647 L 416.88606,690.63074 L 372.57298,690.74742 L 372.61306,705.96028 L 416.92613,705.84356 L 416.96559,720.83441 L 372.65253,720.95109 L 372.74483,756.00592 L 353.34021,756.05703 z "
       style="font-size:56px;font-style:normal;font-weight:normal;fill:none;fill-opacity:1;stroke:#000000;stroke-width:3.68000007;stroke-linecap:butt;stroke-linejoin:miter;stroke-miterlimit:4;stroke-dasharray:none;stroke-opacity:1;font-family:Zone23_HelveticaFlip" />
    <path
       style="font-size:56px;font-style:normal;font-weight:normal;fill:none;fill-opacity:1;stroke:#000000;stroke-width:3.68000007;stroke-linecap:butt;stroke-linejoin:miter;stroke-miterlimit:4;stroke-dasharray:none;stroke-opacity:1;font-family:Zone23_HelveticaFlip"
       d="M 464.45936,698.55094 L 471.72579,716.7235 C 476.28749,713.5882 481.45357,711.16497 487.22398,709.4538 C 492.9946,707.74265 498.30199,706.88709 503.14617,706.88709 L 512.97606,707.74159 C 515.39826,708.31559 517.89214,708.99396 520.45775,709.77669 C 523.02343,710.55944 525.62387,711.34219 528.25902,712.12489 C 530.89432,712.90764 533.28057,713.61974 535.41781,714.26114 C 537.55517,714.90256 539.58596,715.40152 541.51016,715.75813 C 543.43443,716.11469 546.03591,716.29297 549.3147,716.29297 C 552.87618,716.29297 555.97449,715.97229 558.60972,715.33087 C 561.24493,714.68946 563.70294,713.97741 565.98377,713.19466 C 568.26456,712.41191 571.11394,711.23562 574.53191,709.66582 L 568.55048,692.5695 C 560.42741,696.41796 553.73065,698.34219 548.4602,698.34219 C 544.46827,698.34219 536.41692,696.9159 524.30621,694.06324 C 516.75284,692.35428 510.1974,691.49977 504.63991,691.49977 C 500.22187,691.49977 495.23627,692.2847 489.68309,693.8545 C 496.23643,686.87075 500.97309,679.95875 503.89303,673.11847 C 506.81318,666.27823 508.27317,659.8663 508.27313,653.88266 C 508.27317,652.17374 508.13077,650.74851 507.84589,649.60695 C 507.56112,648.46554 507.06211,646.82723 506.3489,644.692 L 535.84506,644.692 L 535.84506,629.30469 L 502.93094,629.30469 C 499.08256,616.62009 497.15833,606.50321 497.15825,598.954 C 497.15833,591.97036 499.75874,585.98462 504.95953,580.9967 C 510.16046,576.00905 516.53761,573.51516 524.09095,573.51505 C 531.50092,573.51516 537.77044,575.93729 542.8995,580.78144 C 548.02865,585.62584 551.02154,592.18128 551.87817,600.44774 L 570.68997,597.66905 C 568.8375,585.27145 563.77798,575.5829 555.51137,568.60335 C 551.52379,565.03767 546.92846,562.40031 541.72538,560.69116 C 536.52239,558.98235 530.78775,558.12784 524.52148,558.1277 C 512.12381,558.12784 501.65037,561.33273 493.10106,567.74232 C 482.41243,576.15256 477.06806,587.48266 477.06794,601.73273 C 477.06806,604.0115 477.06806,606.21836 477.06794,608.3534 C 477.49855,610.06682 477.7834,611.34964 477.92244,612.20186 C 478.63572,616.05043 480.13159,621.75136 482.41014,629.30469 L 466.38359,629.30469 L 466.38359,644.692 L 486.68913,644.692 C 487.97202,649.25371 488.61344,653.60006 488.61336,657.73111 C 488.61344,667.27624 486.26195,675.57541 481.55892,682.62874 C 476.85608,689.68208 471.15621,694.9895 464.45936,698.55094 L 464.45936,698.55094 z "
       id="text21410" />
    <path
       id="path23383"
       d="M 412.52736,450.30634 L 395.90451,450.30634 L 389.99418,463.6046 L 410.31098,463.6046 C 409.94158,465.82098 409.94158,468.03737 409.94158,470.25375 C 409.94158,472.47012 409.94158,474.6865 410.31098,476.90288 L 395.90451,476.90288 L 389.99418,490.20114 L 412.52736,490.20114 C 421.76227,524.18561 453.34564,550.04335 489.73117,550.04335 C 509.86328,550.04335 528.70248,542.10132 542.92424,529.17246 L 542.92424,509.96385 C 530.73417,526.21728 511.34086,536.74508 489.73117,536.74508 C 460.17947,536.74508 434.87583,517.16706 426.37972,490.20114 L 516.3277,490.20114 L 522.23805,476.90288 L 423.60924,476.90288 C 423.23984,474.6865 423.23984,472.47012 423.23984,470.25375 C 423.23984,468.40677 423.23984,465.82098 423.60924,463.6046 L 528.1484,463.6046 L 534.05873,450.30634 L 426.37972,450.30634 C 434.69113,423.70981 459.81009,403.76241 489.73117,403.76241 C 513.00315,403.76241 530.73417,414.2902 542.92424,430.35895 L 548.83458,417.24538 C 534.05873,400.80723 513.00315,390.46414 489.73117,390.46414 C 453.16094,390.46414 421.57756,416.69128 412.52736,450.30634 z "
       style="fill:none;stroke:none;stroke-width:3.68000007;stroke-miterlimit:4;stroke-dasharray:none;stroke-opacity:1" />
    <path
       style="fill:#ffffff;fill-opacity:1;stroke:#a7a7a7;stroke-width:3.68000007;stroke-miterlimit:4;stroke-dasharray:none;stroke-opacity:1"
       d="M 408.52736,446.30634 L 391.90451,446.30634 L 385.99418,459.6046 L 406.31098,459.6046 C 405.94158,461.82098 405.94158,464.03737 405.94158,466.25375 C 405.94158,468.47012 405.94158,470.6865 406.31098,472.90288 L 391.90451,472.90288 L 385.99418,486.20114 L 408.52736,486.20114 C 417.76227,520.18561 449.34564,546.04335 485.73117,546.04335 C 505.86328,546.04335 524.70248,538.10132 538.92424,525.17246 L 538.92424,505.96385 C 526.73417,522.21728 507.34086,532.74508 485.73117,532.74508 C 456.17947,532.74508 430.87583,513.16706 422.37972,486.20114 L 512.3277,486.20114 L 518.23805,472.90288 L 419.60924,472.90288 C 419.23984,470.6865 419.23984,468.47012 419.23984,466.25375 C 419.23984,464.40677 419.23984,461.82098 419.60924,459.6046 L 524.1484,459.6046 L 530.05873,446.30634 L 422.37972,446.30634 C 430.69113,419.70981 455.81009,399.76241 485.73117,399.76241 C 509.00315,399.76241 526.73417,410.2902 538.92424,426.35895 L 544.83458,413.24538 C 530.05873,396.80723 509.00315,386.46414 485.73117,386.46414 C 449.16094,386.46414 417.57756,412.69128 408.52736,446.30634 z "
       id="path23367" />
    <path
       style="font-size:56px;font-style:normal;font-weight:bold;fill:#ffffff;fill-opacity:1;stroke:#a7a7a7;stroke-width:3.68000007;stroke-linecap:butt;stroke-linejoin:miter;stroke-miterlimit:4;stroke-dasharray:none;stroke-opacity:1;font-family:Zone23_HelveticaFlip"
       d="M 264.09241,431.5713 C 264.89038,440.99601 267.24655,448.79353 271.16091,454.96391 C 275.07545,461.13434 279.85259,465.64618 285.49231,468.4995 C 291.13222,471.3528 298.13388,473.24524 306.49737,474.17678 L 306.49737,491.69163 L 316.84347,491.69162 L 316.84347,473.9763 C 322.95113,473.9763 328.42689,472.88072 333.27084,470.68962 C 338.11483,468.49849 342.59429,465.28066 346.7092,461.0361 C 354.53814,452.80623 358.45259,442.65255 358.4526,430.57498 C 358.45259,425.1357 357.45626,420.02642 355.46358,415.24721 C 353.73824,410.60178 351.08438,406.48786 347.50202,402.90544 C 343.9197,399.32317 339.54048,396.47084 334.36438,394.34848 C 331.97484,393.15376 326.13454,391.42842 316.84347,389.17242 L 316.84347,338.60841 C 322.42056,339.79929 326.86759,342.22027 330.18464,345.87132 C 333.50172,349.52267 335.69086,354.79898 336.75194,361.70029 L 354.86821,359.11225 C 353.27651,347.96234 348.69785,339.20191 341.13219,332.83089 C 334.89497,327.7886 326.79873,324.80366 316.84347,323.87601 L 316.84348,315.51045 L 306.49737,315.51045 L 306.49737,323.87601 C 294.68318,325.33421 285.92274,328.51966 280.21601,333.43236 C 271.45564,341.26136 267.07543,351.34626 267.07533,363.6869 C 267.07544,370.7221 268.56891,376.99372 271.55577,382.5018 C 274.54287,388.01012 278.82285,392.28906 284.39575,395.33876 C 287.98019,397.33147 291.72962,399.05786 295.64402,400.51788 C 299.55851,401.97799 303.17634,403.04017 306.49737,403.70433 L 306.49739,459.44439 C 299.59601,458.64655 293.68888,455.19582 288.77598,449.09223 C 285.32533,444.44675 282.93779,437.54532 281.61332,428.38788 L 264.09241,431.5713 z M 284.59623,362.29564 C 284.59631,356.19221 286.55355,350.91692 290.46792,346.46976 C 294.38247,342.02283 299.72561,339.33556 306.49739,338.40791 L 306.49739,386.97925 C 298.26755,384.32649 292.6257,381.07628 289.57186,377.22851 C 286.25486,373.37697 284.59631,368.39934 284.59623,362.29564 L 284.59623,362.29564 z M 316.84347,459.4444 L 316.84348,406.09188 C 326.53549,409.40897 332.77473,412.92653 335.5612,416.64455 C 338.74462,420.49222 340.33634,425.53463 340.3363,431.77182 C 340.33634,439.20383 338.08039,445.47446 333.56852,450.58371 C 329.05672,455.69299 323.48168,458.64654 316.84347,459.4444 L 316.84347,459.4444 z "
       id="path23369" />
    <path
       style="font-size:56px;font-style:normal;font-weight:normal;fill:#ffffff;fill-opacity:1;stroke:#a7a7a7;stroke-width:3.68000007;stroke-linecap:butt;stroke-linejoin:miter;stroke-miterlimit:4;stroke-dasharray:none;stroke-opacity:1;font-family:Zone23_HelveticaFlip"
       d="M 353.34021,756.05703 L 353.24789,721.0022 L 308.49076,721.12006 L 308.45129,706.12924 L 353.20843,706.01137 L 353.16836,690.79853 L 308.41123,690.91639 L 308.36884,674.82212 L 345.1865,674.72517 L 301.33135,598.33179 L 322.72086,598.27547 L 354.17429,653.75592 C 356.2428,657.4243 357.8678,660.43212 359.04922,662.77938 C 360.23059,665.12683 361.33836,667.62238 362.37258,670.26607 C 363.98139,666.29666 366.9064,660.48459 371.14764,652.82984 L 400.54793,598.07052 L 423.47822,598.01013 L 380.02602,674.63343 L 416.84369,674.53647 L 416.88606,690.63074 L 372.57298,690.74742 L 372.61306,705.96028 L 416.92613,705.84356 L 416.96559,720.83441 L 372.65253,720.95109 L 372.74483,756.00592 L 353.34021,756.05703 z "
       id="path23371" />
    <path
       id="path23373"
       d="M 464.45936,698.55094 L 471.72579,716.7235 C 476.28749,713.5882 481.45357,711.16497 487.22398,709.4538 C 492.9946,707.74265 498.30199,706.88709 503.14617,706.88709 L 512.97606,707.74159 C 515.39826,708.31559 517.89214,708.99396 520.45775,709.77669 C 523.02343,710.55944 525.62387,711.34219 528.25902,712.12489 C 530.89432,712.90764 533.28057,713.61974 535.41781,714.26114 C 537.55517,714.90256 539.58596,715.40152 541.51016,715.75813 C 543.43443,716.11469 546.03591,716.29297 549.3147,716.29297 C 552.87618,716.29297 555.97449,715.97229 558.60972,715.33087 C 561.24493,714.68946 563.70294,713.97741 565.98377,713.19466 C 568.26456,712.41191 571.11394,711.23562 574.53191,709.66582 L 568.55048,692.5695 C 560.42741,696.41796 553.73065,698.34219 548.4602,698.34219 C 544.46827,698.34219 536.41692,696.9159 524.30621,694.06324 C 516.75284,692.35428 510.1974,691.49977 504.63991,691.49977 C 500.22187,691.49977 495.23627,692.2847 489.68309,693.8545 C 496.23643,686.87075 500.97309,679.95875 503.89303,673.11847 C 506.81318,666.27823 508.27317,659.8663 508.27313,653.88266 C 508.27317,652.17374 508.13077,650.74851 507.84589,649.60695 C 507.56112,648.46554 507.06211,646.82723 506.3489,644.692 L 535.84506,644.692 L 535.84506,629.30469 L 502.93094,629.30469 C 499.08256,616.62009 497.15833,606.50321 497.15825,598.954 C 497.15833,591.97036 499.75874,585.98462 504.95953,580.9967 C 510.16046,576.00905 516.53761,573.51516 524.09095,573.51505 C 531.50092,573.51516 537.77044,575.93729 542.8995,580.78144 C 548.02865,585.62584 551.02154,592.18128 551.87817,600.44774 L 570.68997,597.66905 C 568.8375,585.27145 563.77798,575.5829 555.51137,568.60335 C 551.52379,565.03767 546.92846,562.40031 541.72538,560.69116 C 536.52239,558.98235 530.78775,558.12784 524.52148,558.1277 C 512.12381,558.12784 501.65037,561.33273 493.10106,567.74232 C 482.41243,576.15256 477.06806,587.48266 477.06794,601.73273 C 477.06806,604.0115 477.06806,606.21836 477.06794,608.3534 C 477.49855,610.06682 477.7834,611.34964 477.92244,612.20186 C 478.63572,616.05043 480.13159,621.75136 482.41014,629.30469 L 466.38359,629.30469 L 466.38359,644.692 L 486.68913,644.692 C 487.97202,649.25371 488.61344,653.60006 488.61336,657.73111 C 488.61344,667.27624 486.26195,675.57541 481.55892,682.62874 C 476.85608,689.68208 471.15621,694.9895 464.45936,698.55094 L 464.45936,698.55094 z "
       style="font-size:56px;font-style:normal;font-weight:normal;fill:#ffffff;fill-opacity:1;stroke:#a7a7a7;stroke-width:3.68000007;stroke-linecap:butt;stroke-linejoin:miter;stroke-miterlimit:4;stroke-dasharray:none;stroke-opacity:1;font-family:Zone23_HelveticaFlip" />
  </g>
</svg>
