<svg width="689" height="375" viewBox="0 0 689 375" fill="none" xmlns="http://www.w3.org/2000/svg">
<rect width="689" height="375" fill="white"/>
<path d="M101.938 196.812L113.438 195.688C113.354 197.312 113.312 198.292 113.312 198.625C113.312 201.375 114 204.146 115.375 206.938C116.792 209.729 118.688 211.875 121.062 213.375C123.479 214.833 126.021 215.562 128.688 215.562C132.188 215.562 135.75 214.354 139.375 211.938C143 209.521 145.938 206 148.188 201.375C150.438 196.75 151.562 192.167 151.562 187.625C151.562 182.5 150.042 178.396 147 175.312C144 172.229 140.042 170.688 135.125 170.688C131.833 170.688 128.708 171.479 125.75 173.062C122.833 174.646 120.104 177.021 117.562 180.188L107.688 179.5L121.5 132.625H166.25L164.062 143H129.25L122.375 166.312C124.958 164.438 127.604 163.042 130.312 162.125C133.062 161.167 135.875 160.688 138.75 160.688C145.75 160.688 151.5 163 156 167.625C160.5 172.25 162.75 178.583 162.75 186.625C162.75 193.667 161.208 200.167 158.125 206.125C155.042 212.042 150.792 216.604 145.375 219.812C140 222.979 134.188 224.562 127.938 224.562C122.688 224.562 118.042 223.375 114 221C109.958 218.625 106.917 215.354 104.875 211.188C102.875 207.021 101.875 202.854 101.875 198.688C101.875 198.271 101.896 197.646 101.938 196.812Z" fill="black"/>
<path d="M353.045 215.207L352.897 190.082L327.96 190.229L327.898 179.729L352.835 179.582L352.688 154.645L363.313 154.583L363.46 179.52L388.397 179.373L388.459 189.873L363.522 190.02L363.67 215.144L353.045 215.207Z" fill="black"/>
<path d="M202.562 301C203.562 294.833 205.688 287.417 208.938 278.75C212.812 268.292 217.896 257.917 224.188 247.625C230.479 237.292 237.479 228.417 245.188 221H199.5L201.688 210.625H260.188L258.062 221C248.146 229.708 239.479 240.938 232.062 254.688C223.438 270.562 217.542 286 214.375 301H202.562Z" fill="black"/>
<path d="M233.25 170L238.188 146.625H200.812L203.188 135.438L254.5 78.375H263.75L251.562 136.625H264.438L262.375 146.625H249.5L244.562 170H233.25ZM240.25 136.625L248.25 98.375L214.125 136.625H240.25Z" fill="black"/>
<path d="M446.5 223C447.667 217.542 449.271 212.979 451.312 209.312C453.396 205.604 456.146 202.104 459.562 198.812C462.979 195.479 469.562 189.917 479.312 182.125C485.229 177.417 489.271 173.938 491.438 171.688C494.562 168.438 496.833 165.25 498.25 162.125C499.208 160 499.688 157.688 499.688 155.188C499.688 150.979 498.188 147.417 495.188 144.5C492.229 141.542 488.583 140.062 484.25 140.062C479.958 140.062 476.208 141.562 473 144.562C469.792 147.521 467.5 152.292 466.125 158.875L455.062 157.25C456.146 149.125 459.292 142.729 464.5 138.062C469.75 133.354 476.271 131 484.062 131C489.271 131 493.979 132.083 498.188 134.25C502.438 136.417 505.625 139.458 507.75 143.375C509.875 147.292 510.938 151.333 510.938 155.5C510.938 161.583 508.771 167.438 504.438 173.062C501.771 176.562 493.938 183.458 480.938 193.75C475.354 198.167 471.188 201.792 468.438 204.625C465.729 207.458 463.688 210.125 462.312 212.625H503.312L501.125 223H446.5Z" fill="black"/>
<path d="M548.25 311L553.188 287.625H515.812L518.188 276.438L569.5 219.375H578.75L566.562 277.625H579.438L577.375 287.625H564.5L559.562 311H548.25ZM555.25 277.625L563.25 239.375L529.125 277.625H555.25Z" fill="black"/>
<path d="M566.812 162L581.312 92.8125C575.062 97.7292 566.271 101.667 554.938 104.625L557.062 94.375C562.688 92.125 568.229 89.1875 573.688 85.5625C579.188 81.9375 583.312 78.7708 586.062 76.0625C587.729 74.3958 589.312 72.375 590.812 70H597.375L578.188 162H566.812Z" fill="black"/>
<rect x="195" y="187" width="74" height="6" fill="black"/>
<rect x="545" y="187" width="74" height="6" fill="black"/>
</svg>
